<svg width="24" height="24" viewBox="0 0 24 24" fill="none" xmlns="http://www.w3.org/2000/svg">
<g clip-path="url(#clip0_1043_18298)">
<path d="M12.0005 0C8.7387 0 8.3322 0.01575 7.0557 0.06975C5.77395 0.13275 4.90695 0.3315 4.14195 0.6285C3.3413 0.930765 2.6162 1.40401 2.0172 2.01525C1.40426 2.61285 0.930751 3.33835 0.630453 4.14C0.333453 4.905 0.134703 5.772 0.0717031 7.05375C0.0139531 8.331 0.00195312 8.73675 0.00195312 11.9985C0.00195312 15.2602 0.0177031 15.6667 0.0717031 16.9432C0.134703 18.2212 0.333453 19.092 0.630453 19.857C0.932718 20.6577 1.40596 21.3828 2.0172 21.9818C2.6148 22.5947 3.3403 23.0682 4.14195 23.3685C4.90695 23.6617 5.7777 23.8642 7.0557 23.9272C8.33295 23.985 8.7387 23.997 12.0005 23.997C15.2622 23.997 15.6687 23.9812 16.9452 23.9272C18.2232 23.8642 19.094 23.661 19.859 23.3685C20.6596 23.0662 21.3847 22.593 21.9837 21.9818C22.5974 21.3848 23.0711 20.6591 23.3705 19.857C23.6637 19.092 23.8662 18.2212 23.9292 16.9432C23.987 15.666 23.999 15.2602 23.999 11.9985C23.999 8.73675 23.9832 8.33025 23.9292 7.05375C23.8662 5.77575 23.663 4.9005 23.3705 4.14C23.0682 3.33935 22.5949 2.61425 21.9837 2.01525C21.3868 1.40152 20.6611 0.927885 19.859 0.6285C19.094 0.3315 18.2232 0.13275 16.9452 0.06975C15.668 0.012 15.2622 0 12.0005 0ZM12.0005 2.16C15.2037 2.16 15.5862 2.17575 16.8522 2.22975C18.02 2.2845 18.656 2.4795 19.0782 2.6445C19.6002 2.83719 20.0727 3.14389 20.4612 3.54225C20.8589 3.92912 21.1644 4.40051 21.3552 4.9215C21.5202 5.34375 21.7152 5.97975 21.77 7.1475C21.824 8.4135 21.8397 8.79675 21.8397 11.9992C21.8397 15.2017 21.824 15.585 21.7655 16.851C21.7025 18.0187 21.5075 18.6547 21.3432 19.077C21.116 19.6402 20.8625 20.034 20.444 20.46C20.0541 20.8559 19.582 21.1611 19.061 21.354C18.644 21.519 17.999 21.714 16.8267 21.7687C15.554 21.8227 15.179 21.8385 11.9675 21.8385C8.75595 21.8385 8.3817 21.8227 7.10745 21.7642C5.9397 21.7012 5.29545 21.5062 4.8732 21.342C4.3032 21.1147 3.91245 20.8612 3.49395 20.4427C3.0717 20.0205 2.8032 19.6185 2.5962 19.0597C2.4282 18.6427 2.2362 17.9978 2.17395 16.8255C2.1312 15.5678 2.11095 15.1778 2.11095 11.9813C2.11095 8.78625 2.1312 8.3955 2.17395 7.122C2.2362 5.94975 2.4282 5.30625 2.5962 4.88775C2.8032 4.317 3.07245 3.927 3.49395 3.50475C3.9117 3.087 4.3032 2.817 4.8732 2.6055C5.29545 2.44125 5.92395 2.24625 7.0962 2.18775C8.36895 2.142 8.74395 2.1255 11.951 2.1255L12.0005 2.16ZM12.0005 5.84025C11.1915 5.83995 10.3903 5.99908 9.64287 6.30853C8.8954 6.61798 8.21624 7.0717 7.64419 7.64374C7.07215 8.21578 6.61843 8.89495 6.30898 9.64242C5.99953 10.3899 5.84041 11.191 5.8407 12C5.84041 12.809 5.99953 13.6101 6.30898 14.3576C6.61843 15.1051 7.07215 15.7842 7.64419 16.3563C8.21624 16.9283 8.8954 17.382 9.64287 17.6915C10.3903 18.0009 11.1915 18.16 12.0005 18.1597C12.8094 18.16 13.6106 18.0009 14.358 17.6915C15.1055 17.382 15.7847 16.9283 16.3567 16.3563C16.9288 15.7842 17.3825 15.1051 17.6919 14.3576C18.0014 13.6101 18.1605 12.809 18.1602 12C18.1605 11.191 18.0014 10.3899 17.6919 9.64242C17.3825 8.89495 16.9288 8.21578 16.3567 7.64374C15.7847 7.0717 15.1055 6.61798 14.358 6.30853C13.6106 5.99908 12.8094 5.83995 12.0005 5.84025ZM12.0005 15.9998C9.78945 15.9998 8.0007 14.211 8.0007 12C8.0007 9.789 9.78945 8.00025 12.0005 8.00025C14.2115 8.00025 16.0002 9.789 16.0002 12C16.0002 14.211 14.2115 15.9998 12.0005 15.9998ZM19.8485 5.59425C19.8481 5.9765 19.6959 6.34295 19.4255 6.6131C19.1551 6.88325 18.7884 7.035 18.4062 7.035C18.2172 7.035 18.03 6.99777 17.8554 6.92544C17.6808 6.85311 17.5221 6.7471 17.3885 6.61345C17.2549 6.47981 17.1488 6.32115 17.0765 6.14653C17.0042 5.97191 16.967 5.78475 16.967 5.59575C16.967 5.40674 17.0042 5.21959 17.0765 5.04497C17.1488 4.87036 17.2549 4.71169 17.3885 4.57805C17.5221 4.4444 17.6808 4.33839 17.8554 4.26606C18.03 4.19373 18.2172 4.1565 18.4062 4.1565C19.199 4.1565 19.8485 4.8015 19.8485 5.59425Z" fill="url(#paint0_radial_1043_18298)"/>
<path d="M12.0005 0C8.7387 0 8.3322 0.01575 7.0557 0.06975C5.77395 0.13275 4.90695 0.3315 4.14195 0.6285C3.3413 0.930765 2.6162 1.40401 2.0172 2.01525C1.40426 2.61285 0.930751 3.33835 0.630453 4.14C0.333453 4.905 0.134703 5.772 0.0717031 7.05375C0.0139531 8.331 0.00195312 8.73675 0.00195312 11.9985C0.00195312 15.2602 0.0177031 15.6667 0.0717031 16.9432C0.134703 18.2212 0.333453 19.092 0.630453 19.857C0.932718 20.6577 1.40596 21.3828 2.0172 21.9818C2.6148 22.5947 3.3403 23.0682 4.14195 23.3685C4.90695 23.6617 5.7777 23.8642 7.0557 23.9272C8.33295 23.985 8.7387 23.997 12.0005 23.997C15.2622 23.997 15.6687 23.9812 16.9452 23.9272C18.2232 23.8642 19.094 23.661 19.859 23.3685C20.6596 23.0662 21.3847 22.593 21.9837 21.9818C22.5974 21.3848 23.0711 20.6591 23.3705 19.857C23.6637 19.092 23.8662 18.2212 23.9292 16.9432C23.987 15.666 23.999 15.2602 23.999 11.9985C23.999 8.73675 23.9832 8.33025 23.9292 7.05375C23.8662 5.77575 23.663 4.9005 23.3705 4.14C23.0682 3.33935 22.5949 2.61425 21.9837 2.01525C21.3868 1.40152 20.6611 0.927885 19.859 0.6285C19.094 0.3315 18.2232 0.13275 16.9452 0.06975C15.668 0.012 15.2622 0 12.0005 0ZM12.0005 2.16C15.2037 2.16 15.5862 2.17575 16.8522 2.22975C18.02 2.2845 18.656 2.4795 19.0782 2.6445C19.6002 2.83719 20.0727 3.14389 20.4612 3.54225C20.8589 3.92912 21.1644 4.40051 21.3552 4.9215C21.5202 5.34375 21.7152 5.97975 21.77 7.1475C21.824 8.4135 21.8397 8.79675 21.8397 11.9992C21.8397 15.2017 21.824 15.585 21.7655 16.851C21.7025 18.0187 21.5075 18.6547 21.3432 19.077C21.116 19.6402 20.8625 20.034 20.444 20.46C20.0541 20.8559 19.582 21.1611 19.061 21.354C18.644 21.519 17.999 21.714 16.8267 21.7687C15.554 21.8227 15.179 21.8385 11.9675 21.8385C8.75595 21.8385 8.3817 21.8227 7.10745 21.7642C5.9397 21.7012 5.29545 21.5062 4.8732 21.342C4.3032 21.1147 3.91245 20.8612 3.49395 20.4427C3.0717 20.0205 2.8032 19.6185 2.5962 19.0597C2.4282 18.6427 2.2362 17.9978 2.17395 16.8255C2.1312 15.5678 2.11095 15.1778 2.11095 11.9813C2.11095 8.78625 2.1312 8.3955 2.17395 7.122C2.2362 5.94975 2.4282 5.30625 2.5962 4.88775C2.8032 4.317 3.07245 3.927 3.49395 3.50475C3.9117 3.087 4.3032 2.817 4.8732 2.6055C5.29545 2.44125 5.92395 2.24625 7.0962 2.18775C8.36895 2.142 8.74395 2.1255 11.951 2.1255L12.0005 2.16ZM12.0005 5.84025C11.1915 5.83995 10.3903 5.99908 9.64287 6.30853C8.8954 6.61798 8.21624 7.0717 7.64419 7.64374C7.07215 8.21578 6.61843 8.89495 6.30898 9.64242C5.99953 10.3899 5.84041 11.191 5.8407 12C5.84041 12.809 5.99953 13.6101 6.30898 14.3576C6.61843 15.1051 7.07215 15.7842 7.64419 16.3563C8.21624 16.9283 8.8954 17.382 9.64287 17.6915C10.3903 18.0009 11.1915 18.16 12.0005 18.1597C12.8094 18.16 13.6106 18.0009 14.358 17.6915C15.1055 17.382 15.7847 16.9283 16.3567 16.3563C16.9288 15.7842 17.3825 15.1051 17.6919 14.3576C18.0014 13.6101 18.1605 12.809 18.1602 12C18.1605 11.191 18.0014 10.3899 17.6919 9.64242C17.3825 8.89495 16.9288 8.21578 16.3567 7.64374C15.7847 7.0717 15.1055 6.61798 14.358 6.30853C13.6106 5.99908 12.8094 5.83995 12.0005 5.84025ZM12.0005 15.9998C9.78945 15.9998 8.0007 14.211 8.0007 12C8.0007 9.789 9.78945 8.00025 12.0005 8.00025C14.2115 8.00025 16.0002 9.789 16.0002 12C16.0002 14.211 14.2115 15.9998 12.0005 15.9998ZM19.8485 5.59425C19.8481 5.9765 19.6959 6.34295 19.4255 6.6131C19.1551 6.88325 18.7884 7.035 18.4062 7.035C18.2172 7.035 18.03 6.99777 17.8554 6.92544C17.6808 6.85311 17.5221 6.7471 17.3885 6.61345C17.2549 6.47981 17.1488 6.32115 17.0765 6.14653C17.0042 5.97191 16.967 5.78475 16.967 5.59575C16.967 5.40674 17.0042 5.21959 17.0765 5.04497C17.1488 4.87036 17.2549 4.71169 17.3885 4.57805C17.5221 4.4444 17.6808 4.33839 17.8554 4.26606C18.03 4.19373 18.2172 4.1565 18.4062 4.1565C19.199 4.1565 19.8485 4.8015 19.8485 5.59425Z" fill="url(#paint1_radial_1043_18298)"/>
</g>
<defs>
<radialGradient id="paint0_radial_1043_18298" cx="0" cy="0" r="1" gradientUnits="userSpaceOnUse" gradientTransform="translate(5.5 23) rotate(-90) scale(18 18)">
<stop stop-color="#FFD600"/>
<stop offset="0.09375" stop-color="#FFD600"/>
<stop offset="0.509297" stop-color="#FF7A00"/>
<stop offset="1" stop-color="#D300C5"/>
</radialGradient>
<radialGradient id="paint1_radial_1043_18298" cx="0" cy="0" r="1" gradientUnits="userSpaceOnUse" gradientTransform="translate(2.5 -4) rotate(97.9072) scale(18.1728 18.1728)">
<stop stop-color="#0095F6"/>
<stop offset="0.122589" stop-color="#7638FA"/>
<stop offset="1" stop-color="#7638FA" stop-opacity="0"/>
</radialGradient>
<clipPath id="clip0_1043_18298">
<rect width="24" height="24" fill="white"/>
</clipPath>
</defs>
</svg>
