<svg width="209" height="200" viewBox="0 0 209 200" fill="none" xmlns="http://www.w3.org/2000/svg">
<g clip-path="url(#clip0_299_26355)">
<path d="M187.985 193.76C188.774 193.81 189.211 192.829 188.614 192.257L188.554 192.021C188.562 192.002 188.57 191.983 188.578 191.965C189.376 190.061 192.081 190.074 192.872 191.98C193.575 193.672 194.469 195.367 194.689 197.156C194.788 197.945 194.744 198.75 194.568 199.524C196.214 195.929 197.08 192.003 197.08 188.055C197.08 187.063 197.026 186.071 196.915 185.082C196.824 184.272 196.698 183.468 196.535 182.671C195.654 178.363 193.747 174.259 190.995 170.832C189.673 170.109 188.57 168.978 187.904 167.624C187.664 167.135 187.477 166.61 187.388 166.074C187.538 166.094 187.955 163.801 187.842 163.661C188.052 163.343 188.427 163.184 188.656 162.874C189.796 161.329 191.365 161.599 192.185 163.698C193.935 164.581 193.952 166.047 192.878 167.456C192.195 168.353 192.101 169.566 191.501 170.526C191.563 170.605 191.627 170.681 191.689 170.76C192.82 172.211 193.798 173.771 194.623 175.409C194.39 173.588 194.734 171.394 195.321 169.98C195.989 168.369 197.241 167.012 198.343 165.619C199.667 163.946 202.383 164.676 202.616 166.797C202.618 166.818 202.62 166.838 202.623 166.859C202.459 166.951 202.298 167.049 202.142 167.153C201.248 167.744 201.557 169.13 202.616 169.293L202.64 169.297C202.581 169.886 202.479 170.471 202.331 171.046C203.746 176.516 200.692 178.508 196.333 178.597C196.237 178.646 196.143 178.696 196.046 178.743C196.488 179.986 196.841 181.262 197.103 182.555C197.337 183.697 197.5 184.852 197.591 186.012C197.705 187.475 197.695 188.946 197.571 190.407L197.579 190.355C197.892 188.746 198.766 187.243 200.034 186.202C201.924 184.65 204.593 184.078 206.631 182.831C207.613 182.23 208.87 183.006 208.699 184.144L208.69 184.198C208.387 184.322 208.091 184.465 207.804 184.625C207.641 184.718 207.48 184.816 207.324 184.919C206.43 185.511 206.739 186.896 207.798 187.06L207.822 187.063C207.839 187.066 207.854 187.068 207.871 187.071C207.35 188.307 206.625 189.454 205.717 190.444C204.833 195.218 201.035 195.671 196.972 194.281H196.969C196.525 196.215 195.876 198.106 195.042 199.907H188.158C188.133 199.83 188.111 199.751 188.089 199.675C188.725 199.714 189.367 199.677 189.994 199.561C189.483 198.935 188.972 198.303 188.461 197.676C188.449 197.664 188.439 197.652 188.429 197.639C188.17 197.318 187.908 197 187.649 196.679L187.649 196.679C187.633 195.694 187.751 194.713 187.985 193.76L187.985 193.76V193.76Z" fill="#F2F2F2"/>
<path d="M61.3181 199.545C61.3181 199.798 61.5206 200 61.7728 200H208.206C208.458 200 208.661 199.798 208.661 199.545C208.661 199.293 208.458 199.091 208.206 199.091H61.7728C61.5206 199.091 61.3181 199.293 61.3181 199.545Z" fill="#CCCCCC"/>
<path d="M83.5381 199.806H16.1361C7.91763 199.806 1.23132 193.12 1.23132 184.901V40.0499C1.23132 31.8314 7.91763 25.1451 16.1361 25.1451H83.5381C91.7564 25.1451 98.4427 31.8314 98.4427 40.0499V184.901C98.4427 193.12 91.7564 199.806 83.5381 199.806Z" fill="#3F3D56"/>
<path d="M98.4427 78.4262C98.095 78.4262 97.8122 78.709 97.8122 79.0568V99.2342C97.8122 99.582 98.095 99.8648 98.4427 99.8648C98.7905 99.8648 99.0733 99.582 99.0733 99.2342V79.0568C99.0733 78.709 98.7905 78.4262 98.4427 78.4262Z" fill="#3F3D56"/>
<path d="M97.0241 40.05V184.899C97.0241 192.052 91.4564 197.904 84.4164 198.358H84.4132C84.3092 198.364 84.2051 198.37 84.0979 198.374C83.9119 198.383 83.7259 198.386 83.5368 198.386C83.5368 198.386 82.8431 198.336 81.5757 198.241C80.2957 198.147 78.4325 198.005 76.1089 197.819C75.4122 197.765 74.6776 197.705 73.902 197.642C72.3572 197.516 70.661 197.377 68.8419 197.22C68.1168 197.16 67.3664 197.094 66.6003 197.027C62.6846 196.69 58.2992 196.296 53.6741 195.848C52.8922 195.776 52.1041 195.7 51.3096 195.621C51.1015 195.599 50.8902 195.58 50.679 195.558C47.3813 195.234 2.65018 186.589 2.65018 184.899V40.05C2.65018 32.6001 8.68766 26.5627 16.1376 26.5627H24.1896C25.4759 26.5627 26.51 27.5652 26.6204 28.8484C26.6298 28.9335 26.6393 29.0186 26.655 29.1038C26.8883 30.3932 28.0706 31.2918 29.3821 31.2918H70.2921C71.6037 31.2918 72.7859 30.3932 73.0192 29.1038C73.035 29.0186 73.0445 28.9335 73.0539 28.8484C73.1643 27.5652 74.1984 26.5627 75.4847 26.5627H83.5368C90.9866 26.5627 97.0241 32.6001 97.0241 40.05Z" fill="white"/>
<path d="M0.916097 63.2932C0.568342 63.2932 0.285553 63.576 0.285553 63.9237V68.9681C0.285553 69.3158 0.568345 69.5986 0.916097 69.5986C1.26385 69.5986 1.54664 69.3158 1.54664 68.9681V63.9237C1.54664 63.5759 1.26385 63.2932 0.916097 63.2932Z" fill="#3F3D56"/>
<path d="M0.916097 78.4262C0.568342 78.4262 0.285553 78.709 0.285553 79.0568V88.8302C0.285553 89.178 0.568345 89.4608 0.916097 89.4608C1.26385 89.4608 1.54664 89.178 1.54664 88.8302V79.0568C1.54664 78.709 1.26385 78.4262 0.916097 78.4262Z" fill="#3F3D56"/>
<path d="M0.916097 92.2982C0.568342 92.2982 0.285553 92.581 0.285553 92.9288V102.702C0.285553 103.05 0.568345 103.333 0.916097 103.333C1.26385 103.333 1.54664 103.05 1.54664 102.702V92.9288C1.54664 92.581 1.26385 92.2982 0.916097 92.2982Z" fill="#3F3D56"/>
<path d="M23.9701 28.7708H11.9115C11.8461 28.7708 11.793 28.8239 11.793 28.8893V30.2287C11.793 30.2941 11.8461 30.3472 11.9115 30.3472H23.9701C24.0356 30.3472 24.0886 30.2941 24.0886 30.2287V28.8893C24.0886 28.8239 24.0356 28.7708 23.9701 28.7708Z" fill="#E6E6E6"/>
<path d="M77.4771 30.3472C78.1736 30.3472 78.7382 29.7826 78.7382 29.0861C78.7382 28.3896 78.1736 27.825 77.4771 27.825C76.7806 27.825 76.216 28.3896 76.216 29.0861C76.216 29.7826 76.7806 30.3472 77.4771 30.3472Z" fill="#E6E6E6"/>
<path d="M80.9451 30.3472C81.6416 30.3472 82.2062 29.7826 82.2062 29.0861C82.2062 28.3896 81.6416 27.825 80.9451 27.825C80.2486 27.825 79.684 28.3896 79.684 29.0861C79.684 29.7826 80.2486 30.3472 80.9451 30.3472Z" fill="#E6E6E6"/>
<path d="M84.4131 30.3472C85.1096 30.3472 85.6742 29.7826 85.6742 29.0861C85.6742 28.3896 85.1096 27.825 84.4131 27.825C83.7167 27.825 83.152 28.3896 83.152 29.0861C83.152 29.7826 83.7167 30.3472 84.4131 30.3472Z" fill="#E6E6E6"/>
<path d="M76.4225 114.046H22.9364C22.0938 114.046 21.4082 113.36 21.4082 112.518C21.4082 111.675 22.0938 110.99 22.9364 110.99H76.4225C77.2651 110.99 77.9506 111.675 77.9506 112.518C77.9506 113.36 77.2651 114.046 76.4225 114.046Z" fill="#E6E6E6"/>
<path d="M49.8713 173.263C62.1091 173.263 72.0298 163.342 72.0298 151.104C72.0298 138.866 62.1091 128.946 49.8713 128.946C37.6334 128.946 27.7127 138.866 27.7127 151.104C27.7127 163.342 37.6334 173.263 49.8713 173.263Z" fill="#A92428"/>
<path d="M53.3929 143.869C51.5229 143.946 49.4087 144.074 48.0265 145.509C46.8257 146.756 46.5626 148.606 47.7803 149.937C49.0012 151.271 50.8995 151.452 52.3069 152.493C53.9594 153.715 53.7174 156.133 52.1182 157.292C50.2324 158.658 47.7976 158.021 46.0736 156.721C45.6318 156.388 45.203 157.134 45.6397 157.464C47.1843 158.628 49.1999 159.276 51.1096 158.719C52.8332 158.216 54.1693 156.811 54.3052 154.983C54.37 154.11 54.122 153.225 53.5795 152.536C53.0068 151.809 52.1819 151.362 51.3481 150.997C49.9126 150.371 47.441 149.56 47.8583 147.519C48.3642 145.046 51.3746 144.812 53.3929 144.729C53.9441 144.706 53.947 143.846 53.3929 143.869L53.3929 143.869Z" fill="white"/>
<path d="M49.9237 142.699L49.8413 161.57C49.8389 162.123 50.6985 162.124 50.7009 161.57L50.7833 142.699C50.7857 142.146 49.9261 142.145 49.9237 142.699Z" fill="white"/>
<path d="M167.271 0H58.0222C54.0145 0 50.7557 3.25882 50.7557 7.26645V82.1317C50.7557 86.1393 54.0145 89.3982 58.0222 89.3982H167.271C171.279 89.3982 174.538 86.1393 174.538 82.1317V7.26645C174.538 3.25882 171.279 0 167.271 0Z" fill="white"/>
<path d="M112.144 44.5141C118.896 44.5141 124.37 39.0406 124.37 32.2887C124.37 25.5368 118.896 20.0633 112.144 20.0633C105.392 20.0633 99.9189 25.5368 99.9189 32.2887C99.9189 39.0406 105.392 44.5141 112.144 44.5141Z" fill="#A92428"/>
<path d="M114.463 26.8331C112.95 26.8955 111.247 26.9915 110.102 28.1176C109.154 29.0505 108.822 30.5027 109.693 31.6011C110.611 32.7576 112.136 32.977 113.334 33.716C114.078 34.1753 114.572 34.8712 114.588 35.7654C114.603 36.6026 114.216 37.3848 113.57 37.9095C111.986 39.1969 109.824 38.664 108.325 37.5381C108.03 37.3166 107.744 37.8139 108.036 38.0329C109.278 38.9654 110.876 39.507 112.421 39.1058C113.844 38.7365 114.989 37.6177 115.143 36.1227C115.306 34.5471 114.271 33.4742 112.93 32.8587C111.703 32.2961 109.553 31.6967 109.755 29.9489C110.013 27.7267 112.734 27.4775 114.463 27.4062C114.831 27.3911 114.833 26.8179 114.463 26.8331V26.8331Z" fill="white"/>
<path d="M111.834 25.794L111.765 41.5182C111.763 41.887 112.336 41.8874 112.338 41.5182L112.407 25.794C112.408 25.4252 111.835 25.4247 111.834 25.794Z" fill="white"/>
<path d="M167.271 0H58.0222C54.0145 0 50.7557 3.25882 50.7557 7.26645V82.1317C50.7557 86.1393 54.0145 89.3982 58.0222 89.3982H167.271C171.279 89.3982 174.538 86.1393 174.538 82.1317V7.26645C174.538 3.25882 171.279 0 167.271 0ZM173.774 82.1317C173.774 85.7191 170.859 88.6341 167.271 88.6341H58.0222C54.4348 88.6341 51.5198 85.7191 51.5198 82.1317V7.26645C51.5198 3.67908 54.4348 0.764087 58.0222 0.764087H167.271C170.859 0.764087 173.774 3.67908 173.774 7.26645V82.1317Z" fill="#3F3D56"/>
<path d="M100.051 7.39254H89.3306C88.7919 7.39254 88.3526 7.83189 88.3526 8.37057C88.3526 8.91306 88.7919 9.35242 89.3306 9.35242H100.051C100.589 9.35242 101.029 8.91307 101.029 8.37057C101.029 7.8319 100.589 7.39254 100.051 7.39254Z" fill="#E6E6E6"/>
<path d="M118.007 7.39254H107.287C106.748 7.39254 106.309 7.83189 106.309 8.37057C106.309 8.91306 106.748 9.35242 107.287 9.35242H118.007C118.546 9.35242 118.985 8.91307 118.985 8.37057C118.985 7.8319 118.546 7.39254 118.007 7.39254Z" fill="#E6E6E6"/>
<path d="M135.963 7.39254H125.243C124.704 7.39254 124.265 7.83189 124.265 8.37057C124.265 8.91306 124.704 9.35242 125.243 9.35242H135.963C136.502 9.35242 136.941 8.91307 136.941 8.37057C136.941 7.8319 136.502 7.39254 135.963 7.39254Z" fill="#E6E6E6"/>
<path d="M153.644 51.3909H71.6496C68.238 51.3909 65.4644 54.1645 65.4644 57.5762V63.1616C65.4644 66.5733 68.238 69.3469 71.6496 69.3469H153.644C157.055 69.3469 159.829 66.5733 159.829 63.1616V57.5762C159.829 54.1645 157.055 51.3909 153.644 51.3909Z" fill="#A92428"/>
<path d="M28.2432 80.7991L25.099 79.3097C26.3886 81.1094 27.4999 83.9202 28.0948 86.1568C29.102 84.0734 30.7258 81.5241 32.3331 80.0014L29.01 80.8563C31.0577 70.8208 38.7594 63.6163 47.579 63.6163V62.8522C38.3667 62.8522 30.3339 70.3584 28.2432 80.7991Z" fill="#3F3D56"/>
<path d="M42.7147 96.09H22.8485C22.0058 96.09 21.3203 95.4044 21.3203 94.5618C21.3203 93.7192 22.0058 93.0336 22.8485 93.0336H42.7147C43.5573 93.0336 44.2429 93.7192 44.2429 94.5618C44.2429 95.4044 43.5573 96.09 42.7147 96.09Z" fill="#E6E6E6"/>
<path d="M174.871 91.1128L174.671 106.715L170.789 120.624L167.685 119.466L169.063 106.717L168.882 89.4653L174.871 91.1128Z" fill="#FFB6B6"/>
<path d="M170.776 122.866C171.14 120.866 170.472 119.07 169.285 118.854C168.097 118.637 166.839 120.083 166.475 122.083C166.111 124.083 166.779 125.88 167.966 126.096C169.154 126.312 170.411 124.866 170.776 122.866Z" fill="#FFB6B6"/>
<path d="M170.16 72.5353C170.16 72.5353 176.811 72.6268 176.805 76.1596C176.802 78.1541 176.374 96.2639 175.182 107.265C174.262 115.749 172.507 117.963 172.507 117.963L168.305 108.412L170.16 72.5353Z" fill="#E6E6E6"/>
<path d="M169.989 104.412H147.53C149.413 100.211 150.57 96.2106 148.761 93.0284L169.989 91.7977C168.929 96.0936 168.799 100.309 169.989 104.412Z" fill="#FFB6B6"/>
<path d="M167.221 67.1847L158.298 66.5693L154.606 71.1843L152.735 71.5246C149.929 72.0347 147.931 74.5385 148.056 77.3874L148.785 93.9347L170.11 95.4897L175.22 73.9417L169.066 71.492L167.221 67.1847V67.1847Z" fill="#E6E6E6"/>
<path d="M112.809 72.1763C113.442 72.7458 113.894 73.411 114.133 74.0562L120.506 79.1002L118.017 82.0625L111.82 76.627C111.153 76.4576 110.444 76.0783 109.811 75.5089C108.365 74.2079 107.864 72.4073 108.692 71.487C109.52 70.5668 111.363 70.8754 112.809 72.1763L112.809 72.1763Z" fill="#FFB6B6"/>
<path d="M157.866 76.4227V76.4227L133.447 92.9115L115.943 80.7304L118.571 75.9702L132.348 83.9765L145.053 74.2213C149.577 69.9717 155.247 70.7955 157.866 76.4227H157.866Z" fill="#E6E6E6"/>
<path d="M162.23 65.1874C165.886 65.1874 168.85 62.2239 168.85 58.5682C168.85 54.9125 165.886 51.9489 162.23 51.9489C158.575 51.9489 155.611 54.9125 155.611 58.5682C155.611 62.2239 158.575 65.1874 162.23 65.1874Z" fill="#FFB6B6"/>
<path d="M171.227 56.942V58.2256L163.762 56.1244L158.165 57.2973C158.1 56.4453 157.848 55.6086 157.428 54.8675C157.72 56.0562 157.753 56.9759 157.443 57.4501L156.691 57.6067C156.568 57.2743 156.331 56.984 156.022 56.8082C155.991 56.7891 155.953 56.7739 155.919 56.7853C155.865 56.8044 155.862 56.8732 155.862 56.9267C155.869 57.2094 155.877 57.4921 155.888 57.7748L153.726 58.2256V56.942C151.651 52.2742 157.119 48.2351 162.479 48.1932C164.897 48.1743 167.082 49.1712 168.668 50.7528C170.249 52.3383 171.227 54.5236 171.227 56.942Z" fill="#2F2E41"/>
<path d="M175.427 71.9938L174.863 71.9472C174.903 71.7628 174.943 71.5808 174.98 71.3964C175.293 69.8493 174.605 67.8799 174.554 66.3934C174.289 67.9639 174.743 69.896 174.273 71.3871C174.221 71.5528 172.181 72.622 172.125 72.7853C169.868 71.9597 167.517 69.3217 164.854 70.8625C163.28 71.7738 161.483 71.3743 159.696 70.9571C159.253 70.8538 159.192 68.6687 158.754 68.5828C157.969 68.4291 156.818 70.4154 156.079 70.493L159.136 58.6497C159.136 52.2069 158.539 45.4473 166.7 47.7254C168.753 48.2984 170.784 48.7475 172.299 50.4416C173.814 52.1381 174.893 54.5089 175.275 57.2088C175.505 58.8376 176.944 64.3679 175.427 71.9938Z" fill="#2F2E41"/>
<path d="M170.157 191.091L166.513 191.177L164.482 174.808L169.859 174.681L170.157 191.091Z" fill="#FFB7B7"/>
<path d="M157.657 198.692C157.657 199.307 158.094 199.806 158.632 199.806H165.864C165.864 199.806 166.576 196.946 169.477 195.714L169.678 199.806H173.408L172.956 193.227C172.956 193.227 173.954 189.707 171.882 187.907C169.809 186.108 171.488 186.359 171.488 186.359L170.672 182.286L165.035 182.949L164.994 189.342L162.258 195.687L158.245 197.669C157.888 197.845 157.657 198.247 157.657 198.692H157.657H157.657Z" fill="#2F2E41"/>
<path d="M159.072 188.423L155.57 189.431L149.452 174.114L154.62 172.626L159.072 188.423Z" fill="#FFB7B7"/>
<path d="M148.91 198.948C149.066 199.543 149.615 199.915 150.137 199.778L157.132 197.943C157.132 197.943 157.094 194.995 159.588 193.068L160.82 196.975L164.429 196.029L162.322 189.779C162.322 189.779 162.394 186.121 159.933 184.906C157.472 183.692 159.159 183.508 159.159 183.508L157.337 179.776L152.052 181.848L153.634 188.042L152.598 194.873L149.22 197.809C148.919 198.07 148.797 198.518 148.91 198.948L148.91 198.948L148.91 198.948Z" fill="#2F2E41"/>
<path d="M167.923 103.445L170.215 104.209C173.799 110.828 175.318 119.618 175.117 130.218L171.045 177.825H164.384L159.509 124.789L150.913 144.695L157.202 177.825L150.913 178.466L138.245 144.017L147.067 103.978L167.923 103.445Z" fill="#2F2E41"/>
</g>
<defs>
<clipPath id="clip0_299_26355">
<rect width="208.429" height="200" fill="white" transform="translate(0.285553)"/>
</clipPath>
</defs>
</svg>
