<svg width="255" height="200" viewBox="0 0 255 200" fill="none" xmlns="http://www.w3.org/2000/svg">
<g clip-path="url(#clip0_299_26282)">
<path d="M11.6444 194.295C19.5698 200.098 29.8405 200.39 39.7682 199.677C41.1545 199.577 42.531 199.461 43.8947 199.335C43.9029 199.333 43.9137 199.333 43.9221 199.331C43.9876 199.325 44.0533 199.319 44.116 199.315C44.3975 199.288 44.6791 199.261 44.9579 199.234L44.8921 199.362L44.6853 199.759C44.7596 199.626 44.8338 199.496 44.9081 199.363C44.93 199.323 44.9545 199.284 44.9762 199.244C47.548 194.695 50.0988 189.979 50.7495 184.784C51.422 179.393 49.5319 173.288 44.8634 170.638C44.2512 170.291 43.6028 170.015 42.9303 169.815C42.6511 169.728 42.3681 169.659 42.0819 169.597C40.331 169.201 38.5082 169.287 36.8008 169.846C35.0935 170.404 33.5632 171.414 32.3674 172.773C31.1716 174.132 30.3534 175.79 29.9969 177.576C29.6404 179.363 29.7586 181.214 30.3392 182.939C26.3811 178.813 27.1195 172.121 28.4848 166.528C29.8528 160.935 31.5088 154.711 28.7265 149.688C27.1798 146.891 24.4599 145.156 21.4076 144.458C21.3139 144.437 21.2204 144.417 21.1266 144.399C17.4898 143.65 13.7089 144.323 10.5392 146.284C4.70281 150.023 1.70516 157.111 0.732248 164.054C-0.835294 175.227 2.6337 187.696 11.6444 194.295Z" fill="#F2F2F2"/>
<path d="M14.2032 176.384C14.4333 178.849 15.0157 181.266 15.9321 183.56C16.7767 185.589 17.9151 187.479 19.3095 189.167C22.158 192.65 25.9244 195.268 30.0149 197.013C33.1426 198.315 36.4197 199.21 39.7682 199.677C41.1545 199.577 42.5309 199.461 43.8947 199.335C43.9029 199.333 43.9137 199.333 43.9221 199.331C43.9876 199.325 44.0533 199.319 44.116 199.315C44.3975 199.288 44.6791 199.261 44.9579 199.234L44.892 199.362L44.6853 199.759C44.7596 199.626 44.8338 199.496 44.9081 199.363C44.93 199.323 44.9545 199.284 44.9762 199.244C42.4658 196.702 40.5915 193.585 39.5103 190.155C38.4291 186.724 38.1726 183.081 38.7621 179.529C39.379 176.002 40.8072 172.674 42.9303 169.815C42.6511 169.728 42.3681 169.658 42.0819 169.597C41.275 170.718 40.5673 171.909 39.9669 173.157C37.8127 177.608 37.1254 182.645 38.0069 187.523C38.8263 191.937 40.8678 196.022 43.8917 199.299C43.6269 199.28 43.3596 199.258 43.098 199.234C38.1423 198.807 33.1968 197.724 28.702 195.506C24.8599 193.656 21.5243 190.874 18.9891 187.405C16.2668 183.589 15.0673 178.999 14.8612 174.334C14.6427 169.339 15.2803 164.257 16.4017 159.4C17.5468 154.421 19.287 149.602 21.5836 145.053C21.635 144.949 21.6453 144.83 21.6126 144.719C21.5798 144.609 21.5064 144.515 21.4076 144.458C21.3252 144.401 21.2242 144.38 21.1266 144.399C21.0788 144.412 21.0345 144.435 20.997 144.468C20.9595 144.501 20.9297 144.542 20.9099 144.588C20.6265 145.15 20.3485 145.712 20.081 146.281C17.8534 151.018 16.2134 156.018 15.1986 161.166C14.2135 166.132 13.6877 171.327 14.2032 176.384Z" fill="white"/>
<path d="M249.533 171.951H118.456C117.104 171.95 115.808 171.403 114.852 170.431C113.896 169.46 113.358 168.142 113.356 166.768V5.18293C113.358 3.8088 113.896 2.4914 114.852 1.51975C115.808 0.5481 117.104 0.00154691 118.456 0H249.533C250.885 0.00154691 252.181 0.5481 253.137 1.51975C254.093 2.4914 254.63 3.8088 254.632 5.18293V166.768C254.63 168.142 254.093 169.46 253.137 170.431C252.181 171.403 250.885 171.95 249.533 171.951ZM118.456 0.609756C117.263 0.611128 116.119 1.09338 115.276 1.95072C114.432 2.80806 113.958 3.97047 113.956 5.18293V166.768C113.958 167.981 114.432 169.143 115.276 170.001C116.119 170.858 117.263 171.34 118.456 171.341H249.533C250.726 171.34 251.869 170.858 252.713 170.001C253.556 169.143 254.031 167.981 254.032 166.768V5.18293C254.031 3.97047 253.556 2.80806 252.713 1.95072C251.869 1.09338 250.726 0.611128 249.533 0.609756H118.456Z" fill="#3F3D56"/>
<path d="M254.332 12.68H113.656V13.2897H254.332V12.68Z" fill="#3F3D56"/>
<path d="M120.555 9.14634C121.88 9.14634 122.955 8.05435 122.955 6.70732C122.955 5.36028 121.88 4.26829 120.555 4.26829C119.23 4.26829 118.156 5.36028 118.156 6.70732C118.156 8.05435 119.23 9.14634 120.555 9.14634Z" fill="#3F3D56"/>
<path d="M128.054 9.14634C129.379 9.14634 130.453 8.05435 130.453 6.70732C130.453 5.36028 129.379 4.26829 128.054 4.26829C126.729 4.26829 125.654 5.36028 125.654 6.70732C125.654 8.05435 126.729 9.14634 128.054 9.14634Z" fill="#3F3D56"/>
<path d="M135.553 9.14634C136.878 9.14634 137.952 8.05435 137.952 6.70732C137.952 5.36028 136.878 4.26829 135.553 4.26829C134.227 4.26829 133.153 5.36028 133.153 6.70732C133.153 8.05435 134.227 9.14634 135.553 9.14634Z" fill="#3F3D56"/>
<path d="M229.214 36.8902H135.63C134.596 36.8902 133.604 36.4727 132.873 35.7294C132.142 34.9861 131.731 33.978 131.731 32.9268C131.731 31.8757 132.142 30.8676 132.873 30.1243C133.604 29.381 134.596 28.9634 135.63 28.9634H229.214C230.248 28.9634 231.24 29.381 231.971 30.1243C232.703 30.8676 233.113 31.8757 233.113 32.9268C233.113 33.978 232.703 34.9861 231.971 35.7294C231.24 36.4727 230.248 36.8902 229.214 36.8902ZM135.63 29.5732C134.755 29.5732 133.916 29.9265 133.297 30.5554C132.679 31.1844 132.331 32.0374 132.331 32.9268C132.331 33.8163 132.679 34.6693 133.297 35.2982C133.916 35.9272 134.755 36.2805 135.63 36.2805H229.214C230.089 36.2805 230.928 35.9272 231.547 35.2982C232.166 34.6693 232.514 33.8163 232.514 32.9268C232.514 32.0374 232.166 31.1844 231.547 30.5554C230.928 29.9265 230.089 29.5732 229.214 29.5732H135.63Z" fill="#3F3D56"/>
<path d="M170.646 92.6829H133.753C132.401 92.6814 131.105 92.1348 130.149 91.1632C129.193 90.1915 128.655 88.8741 128.654 87.5V56.7073C128.655 55.3332 129.193 54.0158 130.149 53.0441C131.105 52.0725 132.401 51.5259 133.753 51.5244H170.646C171.998 51.5259 173.294 52.0725 174.25 53.0441C175.206 54.0158 175.744 55.3332 175.746 56.7073V87.5C175.744 88.8741 175.206 90.1915 174.25 91.1632C173.294 92.1348 171.998 92.6814 170.646 92.6829ZM133.753 52.1341C132.56 52.1355 131.416 52.6178 130.573 53.4751C129.729 54.3325 129.255 55.4949 129.254 56.7073V87.5C129.255 88.7125 129.729 89.8749 130.573 90.7322C131.416 91.5895 132.56 92.0718 133.753 92.0732H170.646C171.839 92.0718 172.983 91.5895 173.826 90.7322C174.67 89.8749 175.144 88.7125 175.146 87.5V56.7073C175.144 55.4949 174.67 54.3325 173.826 53.4751C172.983 52.6178 171.839 52.1355 170.646 52.1341H133.753Z" fill="#3F3D56"/>
<path d="M234.235 53.0488H197.342C194.691 53.0488 192.543 55.2328 192.543 57.9268V88.7195C192.543 91.4136 194.691 93.5976 197.342 93.5976H234.235C236.886 93.5976 239.035 91.4136 239.035 88.7195V57.9268C239.035 55.2328 236.886 53.0488 234.235 53.0488Z" fill="#F2F2F2"/>
<path d="M170.646 150H133.753C132.401 149.998 131.105 149.452 130.149 148.48C129.193 147.509 128.655 146.191 128.654 144.817V114.024C128.655 112.65 129.193 111.333 130.149 110.361C131.105 109.39 132.401 108.843 133.753 108.841H170.646C171.998 108.843 173.294 109.39 174.25 110.361C175.206 111.333 175.744 112.65 175.746 114.024V144.817C175.744 146.191 175.206 147.509 174.25 148.48C173.294 149.452 171.998 149.998 170.646 150ZM133.753 109.451C132.56 109.453 131.416 109.935 130.573 110.792C129.729 111.65 129.255 112.812 129.254 114.024V144.817C129.255 146.03 129.729 147.192 130.573 148.049C131.416 148.907 132.56 149.389 133.753 149.39H170.646C171.839 149.389 172.983 148.907 173.826 148.049C174.67 147.192 175.144 146.03 175.146 144.817V114.024C175.144 112.812 174.67 111.65 173.826 110.792C172.983 109.935 171.839 109.453 170.646 109.451H133.753Z" fill="#3F3D56"/>
<path d="M234.235 110.366H197.342C194.691 110.366 192.543 112.55 192.543 115.244V146.037C192.543 148.731 194.691 150.915 197.342 150.915H234.235C236.886 150.915 239.035 148.731 239.035 146.037V115.244C239.035 112.55 236.886 110.366 234.235 110.366Z" fill="#F2F2F2"/>
<path d="M143.019 85.2356C143.012 85.2356 143.005 85.2354 142.999 85.2352L138.802 85.0772C138.672 85.0732 138.547 85.0212 138.451 84.9308C138.354 84.8404 138.294 84.7178 138.28 84.5855C137.991 81.9662 136.802 68.6187 141.782 63.0711C142.486 62.27 143.358 61.6385 144.332 61.2223C145.307 60.8061 146.361 60.6157 147.417 60.6649C147.46 60.6677 147.503 60.6585 147.541 60.6383C147.579 60.618 147.611 60.5876 147.633 60.5503L148.649 58.9276C148.705 58.8397 148.783 58.7694 148.876 58.7246C148.969 58.6798 149.073 58.6624 149.175 58.6743C149.989 58.7743 154.141 59.2465 155.887 58.7328C155.99 58.7019 156.099 58.7026 156.202 58.7347C156.304 58.7668 156.395 58.8289 156.464 58.9132L157.798 60.5704C157.82 60.6004 157.85 60.6243 157.884 60.6403C157.918 60.6563 157.955 60.6637 157.992 60.6621C158.671 60.6482 161.05 60.7818 163.132 63.1489C165.386 65.7121 167.713 71.4952 165.994 84.4892C165.976 84.6226 165.912 84.745 165.812 84.8338C165.712 84.9226 165.584 84.9717 165.452 84.9722H162.147C162.016 84.9716 161.889 84.9233 161.79 84.8361C161.691 84.7488 161.625 84.6284 161.606 84.4965L160.526 76.9245C160.517 76.8623 160.486 76.8057 160.438 76.766C160.39 76.7263 160.329 76.7065 160.267 76.7103C160.205 76.7142 160.147 76.7415 160.104 76.7869C160.062 76.8322 160.037 76.8923 160.036 76.9552L159.961 80.5103C159.959 80.6157 159.927 80.7184 159.87 80.8062C159.812 80.894 159.731 80.9634 159.637 81.0063C158.458 81.5328 152.233 84.0024 145.352 80.9094C145.259 80.8669 145.18 80.7989 145.122 80.7132C145.065 80.6274 145.032 80.5271 145.028 80.4235L144.892 77.1934C144.89 77.1303 144.864 77.0706 144.82 77.0261C144.776 76.9817 144.717 76.9558 144.654 76.9536C144.592 76.9514 144.532 76.973 144.485 77.0143C144.438 77.0555 144.408 77.1132 144.401 77.176L143.562 84.7422C143.546 84.8778 143.483 85.0028 143.382 85.0937C143.282 85.1845 143.153 85.235 143.019 85.2356Z" fill="#A92428"/>
<path d="M160.378 141.018H160.375L143.931 140.912C143.812 140.911 143.697 140.866 143.608 140.785C143.518 140.704 143.461 140.593 143.447 140.472L141.793 126.181C141.783 126.089 141.741 126.004 141.674 125.941C141.606 125.878 141.519 125.842 141.428 125.839C140.123 125.796 137.017 125.494 136.373 123.625C135.8 121.961 137.368 119.506 141.033 116.329C141.095 116.275 141.17 116.237 141.25 116.22C141.331 116.203 141.414 116.206 141.492 116.23C141.571 116.254 141.643 116.297 141.7 116.356C141.758 116.415 141.801 116.488 141.824 116.568L143.726 123.241C143.749 123.321 143.797 123.391 143.863 123.441C143.928 123.492 144.008 123.519 144.09 123.52L159.681 123.627C159.763 123.628 159.842 123.602 159.908 123.553C159.974 123.504 160.023 123.435 160.047 123.355L162.164 116.508C162.188 116.432 162.229 116.362 162.285 116.306C162.341 116.249 162.409 116.207 162.484 116.182C162.559 116.158 162.639 116.153 162.716 116.166C162.794 116.18 162.867 116.213 162.93 116.261C164.374 117.383 169.028 121.233 168.262 123.695C167.861 124.985 166.052 125.704 162.884 125.832C162.793 125.835 162.706 125.872 162.639 125.934C162.573 125.997 162.53 126.082 162.52 126.174L160.865 140.577C160.851 140.699 160.794 140.811 160.704 140.892C160.614 140.973 160.498 141.018 160.378 141.018Z" fill="#A92428"/>
<path d="M232.436 80.8394C227.269 81.8505 222.396 84.0441 218.187 87.2537C217.974 86.6778 217.573 86.1937 217.05 85.8822C216.694 85.6575 216.305 85.4913 215.897 85.3898C215.527 85.2937 215.171 85.5227 214.844 85.8527C214.467 86.2758 214.152 86.7508 213.906 87.2636C208.259 83.3239 199.693 80.8099 199.693 80.8099V80.0219C199.7 79.8363 199.719 79.6512 199.749 79.4679C199.778 79.2562 199.814 79.069 199.86 78.8401C200.587 75.0826 203.46 66.4965 203.46 66.4965H206.709L213.007 67.8262L220.093 67.3854L227.23 65.876L228.155 65.679C229.698 66.9102 231.45 75.5283 232.138 79.1971C232.225 79.6625 232.293 80.0466 232.344 80.3297C232.404 80.6498 232.436 80.8394 232.436 80.8394Z" fill="white"/>
<path d="M213.052 118.664C213.052 118.664 211.543 119.048 209.203 125.49C206.863 131.933 206.034 140.257 206.034 140.257C206.034 140.257 204.718 142.521 210.335 142.673C210.335 142.673 209.883 144.169 213.052 143.939C216.221 143.71 215.765 143.712 215.765 143.712C215.765 143.712 217.802 142.408 218.708 142.637C219.614 142.867 220.18 142.945 221.16 143.788C222.14 144.63 225.274 144.287 225.312 143.636C225.337 143.316 225.337 142.995 225.312 142.675C225.312 142.675 230.104 142.983 229.198 139.454C228.292 135.925 227.538 130.134 227.538 130.134C227.538 130.134 225.086 118.82 222.292 118.666C219.498 118.513 213.052 118.664 213.052 118.664Z" fill="white"/>
<path d="M58.1503 107.804C63.12 107.804 67.1487 103.709 67.1487 98.6573C67.1487 93.6059 63.12 89.511 58.1503 89.511C53.1806 89.511 49.1518 93.6059 49.1518 98.6573C49.1518 103.709 53.1806 107.804 58.1503 107.804Z" fill="#2F2E41"/>
<path d="M58.906 107.821C62.9747 107.821 66.2731 104.469 66.2731 100.333C66.2731 96.1974 62.9747 92.8448 58.906 92.8448C54.8373 92.8448 51.539 96.1974 51.539 100.333C51.539 104.469 54.8373 107.821 58.906 107.821Z" fill="#FFB8B8"/>
<path d="M86.9627 123.109C86.8457 123.229 86.7382 123.357 86.6411 123.494L71.775 122.96L70.0747 119.719L64.9269 121.688L67.3884 127.723C67.5872 128.211 67.9363 128.62 68.3832 128.888C68.8302 129.157 69.3508 129.271 69.8669 129.214L86.6894 127.336C87.0802 127.851 87.6159 128.232 88.225 128.429C88.8342 128.627 89.4881 128.631 90.0997 128.441C90.7113 128.252 91.2515 127.877 91.6487 127.368C92.0458 126.859 92.281 126.238 92.323 125.59C92.3649 124.941 92.2116 124.295 91.8835 123.737C91.5553 123.18 91.0679 122.737 90.486 122.467C89.9041 122.198 89.2553 122.115 88.6259 122.23C87.9966 122.344 87.4165 122.651 86.9627 123.109H86.9627Z" fill="#FFB8B8"/>
<path d="M62.9467 124.602C62.7573 124.516 62.5884 124.389 62.4516 124.23C62.3148 124.072 62.2133 123.885 62.1541 123.682L60.0834 116.619C59.6338 115.64 59.5842 114.521 59.9454 113.506C60.3066 112.49 61.0492 111.662 62.0103 111.202C62.9715 110.742 64.0728 110.689 65.0728 111.053C66.0727 111.417 66.8897 112.17 67.3447 113.146L71.3556 119.315C71.4701 119.491 71.5459 119.69 71.5778 119.898C71.6098 120.107 71.5971 120.32 71.5407 120.523C71.4844 120.726 71.3856 120.915 71.2511 121.075C71.1167 121.236 70.9497 121.366 70.7616 121.455L64.1499 124.593C63.9618 124.683 63.7569 124.73 63.5493 124.731C63.3416 124.733 63.1361 124.689 62.9467 124.602Z" fill="#CCCCCC"/>
<path d="M77.5886 196.319L80.8184 194.532L75.5738 181.019L70.8071 183.657L77.5886 196.319Z" fill="#FFB8B8"/>
<path d="M76.1908 195.703L82.5514 192.184L82.5516 192.184C83.0839 191.889 83.6681 191.704 84.2708 191.639C84.8735 191.574 85.4828 191.63 86.0641 191.805C86.6454 191.979 87.1872 192.268 87.6586 192.655C88.13 193.042 88.5218 193.52 88.8115 194.061L88.8832 194.195L78.4692 199.957L76.1908 195.703Z" fill="#2F2E41"/>
<path d="M42.0487 196.334H45.7257L47.4753 181.917L42.0478 181.917L42.0487 196.334Z" fill="#FFB8B8"/>
<path d="M41.1105 195.114L48.3524 195.113H48.3527C48.9588 195.113 49.5589 195.235 50.1189 195.47C50.6788 195.706 51.1876 196.052 51.6161 196.487C52.0447 196.923 52.3846 197.44 52.6166 198.009C52.8485 198.578 52.9679 199.188 52.9679 199.804V199.957L41.1108 199.957L41.1105 195.114Z" fill="#2F2E41"/>
<path d="M64.8991 132.346L66.0989 146.98L79.4821 187.79C79.5348 187.951 79.554 188.121 79.5385 188.289C79.5231 188.457 79.4733 188.621 79.3924 188.769C79.3115 188.916 79.2012 189.046 79.0685 189.148C78.9358 189.25 78.7837 189.323 78.6218 189.362L74.52 190.355C74.2573 190.418 73.9813 190.39 73.7364 190.274C73.4916 190.159 73.2923 189.963 73.1707 189.717L56.0605 155.22C56.0047 155.107 55.9161 155.015 55.8067 154.956C55.6974 154.897 55.5727 154.873 55.4498 154.889C55.3269 154.905 55.2118 154.959 55.1203 155.044C55.0288 155.129 54.9654 155.24 54.9389 155.363L47.4091 190.23C47.3504 190.501 47.2023 190.744 46.9891 190.919C46.776 191.093 46.5107 191.188 46.2372 191.188H42.4213C42.2624 191.188 42.105 191.156 41.9583 191.094C41.8117 191.031 41.6787 190.94 41.5671 190.825C41.4555 190.71 41.3676 190.574 41.3084 190.424C41.2493 190.274 41.2201 190.113 41.2225 189.952C41.5722 165.776 40.4187 138.228 49.6017 133.871L51.1015 129.907L64.8991 132.346Z" fill="#2F2E41"/>
<path d="M50.6696 130.945L49.1232 121.44C48.8672 119.881 49.0015 118.282 49.5135 116.79C50.0256 115.297 50.899 113.96 52.0532 112.901C53.1815 111.853 54.5513 111.11 56.0365 110.741C57.5216 110.372 59.0742 110.389 60.5512 110.79C60.6388 110.814 60.7265 110.839 60.8144 110.864C62.6317 111.393 64.2455 112.476 65.4378 113.967C66.6301 115.458 67.3435 117.285 67.4815 119.201C67.7766 123.329 67.5126 129.318 64.5786 134.405L64.5216 134.504L50.6696 130.945Z" fill="#CCCCCC"/>
<path d="M66.2347 96.3531C64.5512 97.5325 62.5531 98.1601 60.5085 98.1518C61.2378 98.6659 62.0681 99.013 62.9421 99.1695C60.2237 99.7622 57.4142 99.7783 54.6894 99.2167C54.0837 99.1179 53.4993 98.9139 52.9618 98.6135C52.6939 98.4615 52.4605 98.2538 52.2768 98.0041C52.0931 97.7543 51.9631 97.4681 51.8954 97.1639C51.7143 96.1126 52.5203 95.1573 53.3579 94.5136C54.6404 93.543 56.119 92.8743 57.6869 92.5558C59.2548 92.2374 60.8728 92.2771 62.4237 92.6722C63.4364 92.9383 64.4509 93.3879 65.1087 94.2145C65.7665 95.0411 65.9613 96.3156 65.3346 97.1668L66.2347 96.3531Z" fill="#2F2E41"/>
<path d="M58.0318 89.4658C58.8858 85.961 55.825 82.067 52.2734 82.1399C48.67 82.2139 46.0184 85.5237 44.1956 88.684C42.3728 91.8443 40.5612 95.4268 37.2149 96.7875C36.1076 97.2377 34.9076 97.4016 33.7226 97.2645C32.5376 97.1273 31.4046 96.6934 30.4252 96.0016C29.4458 95.3098 28.6506 94.3818 28.1109 93.3008C27.5712 92.2197 27.3038 91.0194 27.3328 89.8075C26.8835 93.6469 27.506 97.8011 29.942 100.771C32.378 103.74 36.9108 105.079 40.1688 103.083C42.0296 101.943 43.2189 99.962 44.1995 97.9914C45.18 96.0209 46.0525 93.943 47.5382 92.3318C49.024 90.7207 51.3213 89.6513 53.3889 90.3292C54.2097 90.5983 54.946 91.1228 55.7939 91.2823C56.6419 91.4419 57.7095 91.0323 57.8253 90.1637L58.0318 89.4658Z" fill="#2F2E41"/>
<path d="M40.2759 153.015C39.9701 152.651 39.7466 152.223 39.6212 151.762C39.4957 151.3 39.4714 150.816 39.5498 150.344C39.6282 149.872 39.8075 149.423 40.0751 149.029C40.3427 148.635 40.692 148.305 41.0985 148.063L47.489 118.948L53.9716 121.653L45.6516 149.422C46.0062 150.143 46.0884 150.971 45.8825 151.749C45.6765 152.528 45.1968 153.202 44.5342 153.645C43.8716 154.088 43.0721 154.269 42.2873 154.153C41.5025 154.037 40.7868 153.632 40.2759 153.015H40.2759Z" fill="#FFB8B8"/>
<path d="M44.957 123.125C44.855 122.941 44.7931 122.737 44.7757 122.527C44.7583 122.317 44.7857 122.105 44.8561 121.907L47.3135 114.972C47.5227 113.913 48.1363 112.982 49.0199 112.383C49.9034 111.783 50.9848 111.565 52.0269 111.774C53.0689 111.984 53.9866 112.605 54.5788 113.502C55.1709 114.398 55.3892 115.497 55.1857 116.556L54.8123 123.941C54.8017 124.152 54.7464 124.358 54.6504 124.545C54.5544 124.732 54.4198 124.896 54.2558 125.026C54.0919 125.155 53.9024 125.247 53.7003 125.295C53.4982 125.344 53.2882 125.347 53.0847 125.306L45.9308 123.844C45.7272 123.802 45.5348 123.716 45.3667 123.592C45.1987 123.468 45.0589 123.309 44.957 123.125Z" fill="#CCCCCC"/>
<path d="M97.3158 119.86L97.2093 119.845L97.6102 116.881C97.6718 116.426 97.5529 115.965 97.2799 115.599C97.0069 115.233 96.602 114.992 96.1543 114.929L89.9755 114.066C89.5279 114.003 89.0741 114.124 88.714 114.402C88.354 114.679 88.1171 115.091 88.0556 115.546L85.8562 131.808C85.7947 132.263 85.9135 132.724 86.1865 133.09C86.4596 133.456 86.8644 133.697 87.3121 133.76L93.4909 134.623C93.9386 134.685 94.3924 134.565 94.7524 134.287C95.1125 134.01 95.3493 133.598 95.4109 133.143L96.924 121.955L97.0304 121.97L97.3158 119.86Z" fill="#3F3D56"/>
<path d="M95.9601 115.799L95.1909 115.691C95.2143 115.785 95.2149 115.882 95.1925 115.975C95.1701 116.069 95.1255 116.155 95.0626 116.227C94.9996 116.299 94.9203 116.354 94.8315 116.387C94.7428 116.42 94.6474 116.43 94.5537 116.417L91.1774 115.946C91.0837 115.933 90.9946 115.896 90.918 115.84C90.8414 115.784 90.7796 115.709 90.738 115.623C90.6965 115.536 90.6764 115.441 90.6797 115.345C90.6829 115.249 90.7094 115.155 90.7567 115.072L90.0381 114.971C89.8802 114.949 89.7196 114.959 89.5654 115C89.4113 115.041 89.2665 115.113 89.1395 115.211C89.0125 115.309 88.9058 115.431 88.8253 115.571C88.7448 115.711 88.6922 115.865 88.6705 116.026L86.5757 131.515C86.554 131.675 86.5636 131.838 86.604 131.995C86.6444 132.152 86.7147 132.299 86.811 132.428C86.9073 132.557 87.0277 132.666 87.1653 132.747C87.3029 132.829 87.4549 132.883 87.6128 132.905L93.5348 133.732C93.8537 133.777 94.1769 133.691 94.4334 133.493C94.6898 133.295 94.8586 133.002 94.9024 132.678L96.9972 117.189C97.041 116.865 96.9564 116.536 96.7619 116.276C96.5674 116.015 96.279 115.843 95.9601 115.799L95.9601 115.799Z" fill="white"/>
<path d="M91.7602 128.659C93.5824 128.659 95.0596 127.157 95.0596 125.305C95.0596 123.453 93.5824 121.951 91.7602 121.951C89.938 121.951 88.4608 123.453 88.4608 125.305C88.4608 127.157 89.938 128.659 91.7602 128.659Z" fill="#A92428"/>
<path d="M91.4331 126.584C91.3589 126.584 91.2866 126.56 91.2272 126.515L91.2236 126.512L90.4482 125.908C90.4121 125.881 90.3818 125.846 90.359 125.806C90.3362 125.766 90.3214 125.722 90.3154 125.676C90.3094 125.631 90.3123 125.584 90.324 125.54C90.3356 125.495 90.3558 125.453 90.3834 125.417C90.411 125.38 90.4454 125.35 90.4846 125.327C90.5239 125.304 90.5672 125.289 90.6122 125.283C90.6571 125.277 90.7028 125.28 90.7465 125.292C90.7903 125.304 90.8313 125.324 90.8672 125.353L91.3694 125.744L92.5563 124.171C92.5838 124.134 92.6181 124.104 92.6573 124.081C92.6965 124.058 92.7397 124.043 92.7846 124.037C92.8294 124.031 92.875 124.034 92.9187 124.046C92.9624 124.057 93.0034 124.078 93.0393 124.106L93.0319 124.116L93.0395 124.106C93.1119 124.163 93.1593 124.246 93.1712 124.338C93.1832 124.43 93.1587 124.523 93.1032 124.597L91.7072 126.448C91.6749 126.49 91.6334 126.525 91.5859 126.548C91.5383 126.572 91.4861 126.584 91.4331 126.584Z" fill="white"/>
<path d="M122.169 200H7.88935C7.8098 200 7.73351 199.968 7.67726 199.911C7.62101 199.854 7.5894 199.776 7.5894 199.695C7.5894 199.614 7.62101 199.537 7.67726 199.48C7.73351 199.422 7.8098 199.39 7.88935 199.39H122.169C122.249 199.39 122.325 199.422 122.382 199.48C122.438 199.537 122.469 199.614 122.469 199.695C122.469 199.776 122.438 199.854 122.382 199.911C122.325 199.968 122.249 200 122.169 200Z" fill="#3F3D56"/>
</g>
<defs>
<clipPath id="clip0_299_26282">
<rect width="254.264" height="200" fill="white" transform="translate(0.368225)"/>
</clipPath>
</defs>
</svg>
