<svg width="241" height="200" viewBox="0 0 241 200" fill="none" xmlns="http://www.w3.org/2000/svg">
<g clip-path="url(#clip0_299_26441)">
<path d="M113.253 200C165.428 200 207.725 197.837 207.725 195.169C207.725 192.501 165.428 190.338 113.253 190.338C61.0771 190.338 18.7805 192.501 18.7805 195.169C18.7805 197.837 61.0771 200 113.253 200Z" fill="#F2F2F2"/>
<path d="M168.447 46.4167H167.374V17.0162C167.374 12.5032 165.581 8.1751 162.39 4.98394C159.199 1.79278 154.871 4.98266e-06 150.358 0H88.0688C83.5559 -8.54164e-06 79.2277 1.79275 76.0366 4.9839C72.8454 8.17505 71.0526 12.5032 71.0526 17.0162V178.309C71.0526 182.822 72.8454 187.151 76.0365 190.342C79.2277 193.533 83.5558 195.326 88.0688 195.326H150.358C154.871 195.326 159.199 193.533 162.39 190.342C165.581 187.151 167.374 182.823 167.374 178.31V67.3444H168.447L168.447 46.4167Z" fill="#3F3D56"/>
<path d="M163.752 17.1349V178.191C163.752 181.561 162.413 184.794 160.03 187.177C157.647 189.56 154.414 190.899 151.044 190.899H88.4563C85.0859 190.899 81.8536 189.56 79.4703 187.177C77.0871 184.794 75.7482 181.561 75.7482 178.191V17.1349C75.7482 13.7646 77.0871 10.5322 79.4704 8.14903C81.8536 5.76581 85.0859 4.42691 88.4563 4.42685H96.0489C95.6758 5.34365 95.5337 6.33808 95.6352 7.32268C95.7366 8.30727 96.0784 9.25186 96.6306 10.0733C97.1828 10.8948 97.9283 11.568 98.8017 12.0337C99.6751 12.4995 100.65 12.7434 101.639 12.7441H137.324C138.314 12.7434 139.288 12.4994 140.162 12.0337C141.035 11.568 141.781 10.8948 142.333 10.0733C142.885 9.25184 143.227 8.30726 143.328 7.32267C143.43 6.33808 143.288 5.34365 142.915 4.42685H151.044C154.414 4.42691 157.647 5.76581 160.03 8.14903C162.413 10.5322 163.752 13.7646 163.752 17.1349Z" fill="white"/>
<path d="M143.589 86.5815C143.173 86.7989 142.75 87.0047 142.32 87.1988C141.928 87.376 141.53 87.5424 141.125 87.698C140.978 87.7544 140.828 87.8108 140.677 87.8671C139.489 88.2981 138.269 88.6346 137.027 88.8736C136.413 88.9943 135.79 89.0892 135.159 89.1581C134.639 89.2171 134.113 89.2591 133.581 89.2842C133.203 89.303 132.824 89.311 132.443 89.311C130.934 89.3117 129.428 89.1706 127.945 88.8897C127.558 88.8199 127.18 88.7367 126.802 88.6454C124.971 88.2068 123.199 87.5527 121.523 86.697C121.372 86.6218 121.222 86.5413 121.072 86.4635C120.849 86.3454 120.632 86.2219 120.414 86.0931C120.519 85.9482 120.632 85.8059 120.747 85.6663C122.003 84.11 123.572 82.8358 125.354 81.9267C127.135 81.0176 129.088 80.4941 131.085 80.3903C133.082 80.2865 135.079 80.6047 136.945 81.3241C138.811 82.0436 140.504 83.1482 141.915 84.566C142.404 85.0572 142.858 85.5828 143.273 86.1387C143.383 86.2836 143.487 86.4313 143.589 86.5815Z" fill="#A92428"/>
<path d="M132.979 74.7921C139.487 74.7921 144.764 69.5159 144.764 63.0073C144.764 56.4988 139.487 51.2225 132.979 51.2225C126.47 51.2225 121.194 56.4988 121.194 63.0073C121.194 69.5159 126.47 74.7921 132.979 74.7921Z" fill="#2F2E41"/>
<path d="M136.113 74.8087C140.364 72.4852 141.926 67.1559 139.602 62.9054C137.279 58.6548 131.95 57.0927 127.699 59.4163C123.448 61.7398 121.886 67.0691 124.21 71.3196C126.533 75.5701 131.863 77.1323 136.113 74.8087Z" fill="#A0616A"/>
<path d="M141.123 61.5955C139.118 62.9769 136.739 63.7121 134.305 63.7024C135.173 64.3045 136.162 64.7112 137.202 64.8945C133.966 65.5887 130.621 65.6075 127.377 64.9497C126.656 64.834 125.96 64.5951 125.32 64.2432C125.001 64.0651 124.723 63.8219 124.504 63.5293C124.286 63.2368 124.131 62.9015 124.05 62.5452C123.835 61.3137 124.794 60.1949 125.792 59.4408C127.318 58.3039 129.079 57.5206 130.946 57.1476C132.812 56.7746 134.739 56.8212 136.585 57.284C137.791 57.5956 138.999 58.1222 139.782 59.0905C140.565 60.0587 140.797 61.5515 140.051 62.5486L141.123 61.5955Z" fill="#2F2E41"/>
<path d="M132.443 41.0015C127.175 41.0007 122.052 42.7223 117.853 45.9039C113.655 49.0855 110.612 53.5526 109.188 58.6243C107.764 63.6961 108.037 69.0943 109.966 73.9963C111.895 78.8983 115.374 83.0351 119.872 85.7764L120.028 85.8676C120.157 85.9455 120.285 86.0206 120.414 86.0931C120.632 86.2219 120.849 86.3454 121.072 86.4635C121.222 86.5413 121.372 86.6218 121.523 86.6969C123.199 87.5527 124.971 88.2067 126.802 88.6454C127.18 88.7367 127.559 88.8199 127.945 88.8897C129.428 89.1706 130.934 89.3117 132.443 89.311C132.824 89.311 133.203 89.303 133.581 89.2842C134.113 89.26 134.639 89.218 135.159 89.158C135.79 89.0883 136.413 88.9934 137.027 88.8736C138.269 88.6346 139.489 88.2981 140.677 87.8671C140.828 87.8107 140.978 87.7544 141.126 87.698C141.531 87.5424 141.929 87.376 142.32 87.1988C142.749 87.0056 143.172 86.7998 143.589 86.5815C147.767 84.3934 151.221 81.0399 153.53 76.9277C153.541 76.9062 153.555 76.8847 153.565 76.8633C154.797 74.6521 155.672 72.2598 156.155 69.7752C156.834 66.2774 156.731 62.6728 155.854 59.2194C154.977 55.7661 153.347 52.5494 151.081 49.7997C148.815 47.05 145.969 44.8354 142.747 43.3143C139.525 41.7933 136.006 41.0035 132.443 41.0015H132.443ZM153.125 76.5493C153.104 76.5868 153.085 76.6244 153.063 76.6593C150.8 80.7108 147.395 84.0073 143.273 86.1387C142.862 86.3534 142.444 86.5547 142.019 86.7426C141.668 86.9009 141.308 87.0512 140.946 87.1908C140.793 87.2498 140.637 87.3089 140.481 87.3625C139.455 87.7375 138.403 88.0389 137.333 88.2643C136.54 88.4332 135.738 88.5596 134.931 88.6427C134.435 88.6964 133.93 88.734 133.423 88.7528C133.098 88.7662 132.771 88.7743 132.443 88.7743C130.983 88.776 129.525 88.6403 128.09 88.369C127.217 88.208 126.354 87.9965 125.505 87.7356C124.213 87.3362 122.957 86.8271 121.751 86.2138C121.611 86.1414 121.472 86.0689 121.335 85.9938C121.139 85.8891 120.94 85.7817 120.747 85.6663C120.602 85.5858 120.457 85.4999 120.315 85.4141C120.232 85.3657 120.148 85.3148 120.065 85.2638C116.121 82.8417 112.975 79.3149 111.017 75.121C109.059 70.9271 108.376 66.2507 109.051 61.6719C109.727 57.0931 111.732 52.8134 114.818 49.3637C117.904 45.9141 121.934 43.4463 126.41 42.2666C130.885 41.0868 135.609 41.247 139.994 42.7273C144.379 44.2076 148.233 46.9428 151.078 50.5936C153.923 54.2444 155.634 58.6502 155.998 63.2642C156.362 67.8783 155.363 72.4977 153.125 76.5493H153.125Z" fill="#3F3D56"/>
<path d="M127.011 51.3852C126.884 50.0518 125.251 49.231 123.973 49.6337C122.696 50.0365 121.857 51.3227 121.604 52.6378C121.482 53.1917 121.47 53.7642 121.57 54.3225C121.67 54.8808 121.879 55.4139 122.185 55.8913C122.831 56.8205 124.017 57.4004 125.124 57.1645C126.387 56.8952 127.262 55.6617 127.513 54.3945C127.763 53.1273 127.515 51.8209 127.266 50.5532L127.011 51.3852Z" fill="#2F2E41"/>
<path d="M144.988 53.2899C144.861 51.9566 143.228 51.1357 141.951 51.5385C140.673 51.9412 139.835 53.2274 139.581 54.5426C139.459 55.0964 139.448 55.6689 139.547 56.2272C139.647 56.7855 139.856 57.3186 140.162 57.796C140.808 58.7253 141.994 59.3052 143.101 59.0693C144.364 58.8 145.24 57.5664 145.49 56.2993C145.74 55.0321 145.492 53.7256 145.243 52.458L144.988 53.2899Z" fill="#2F2E41"/>
<path d="M90.692 74.8097C90.5249 74.8095 90.3597 74.7745 90.2068 74.7068C90.054 74.6392 89.917 74.5403 89.8046 74.4167L76.4867 59.8881C76.3356 59.7236 76.152 59.5922 75.9475 59.5022C75.743 59.4123 75.5221 59.3657 75.2987 59.3654H4.92257C3.85457 59.3642 2.83066 58.9394 2.07547 58.1842C1.32028 57.4291 0.895486 56.4051 0.894287 55.3371V29.9579C0.895485 28.8899 1.32028 27.866 2.07547 27.1108C2.83066 26.3556 3.85457 25.9308 4.92257 25.9296H96.1002C97.1682 25.9308 98.1921 26.3556 98.9473 27.1108C99.7025 27.866 100.127 28.8899 100.128 29.9579V55.3372C100.127 56.4052 99.7025 57.4291 98.9473 58.1843C98.1921 58.9394 97.1682 59.3642 96.1002 59.3654H93.5153C93.088 59.3659 92.6784 59.5359 92.3762 59.838C92.0741 60.1402 91.9042 60.5498 91.9037 60.9771V73.6001C91.9047 73.8438 91.8316 74.0821 91.694 74.2832C91.5564 74.4844 91.3609 74.6389 91.1334 74.7262C90.9928 74.7813 90.8431 74.8096 90.692 74.8097Z" fill="white"/>
<path d="M90.692 74.8097C90.5249 74.8095 90.3597 74.7745 90.2068 74.7068C90.054 74.6392 89.917 74.5403 89.8046 74.4167L76.4867 59.8881C76.3356 59.7236 76.152 59.5922 75.9475 59.5022C75.743 59.4123 75.5221 59.3657 75.2987 59.3654H4.92257C3.85457 59.3642 2.83066 58.9394 2.07547 58.1842C1.32028 57.4291 0.895486 56.4051 0.894287 55.3371V29.9579C0.895485 28.8899 1.32028 27.866 2.07547 27.1108C2.83066 26.3556 3.85457 25.9308 4.92257 25.9296H96.1002C97.1682 25.9308 98.1921 26.3556 98.9473 27.1108C99.7025 27.866 100.127 28.8899 100.128 29.9579V55.3372C100.127 56.4052 99.7025 57.4291 98.9473 58.1843C98.1921 58.9394 97.1682 59.3642 96.1002 59.3654H93.5153C93.088 59.3659 92.6784 59.5359 92.3762 59.838C92.0741 60.1402 91.9042 60.5498 91.9037 60.9771V73.6001C91.9047 73.8438 91.8316 74.0821 91.694 74.2832C91.5564 74.4844 91.3609 74.6389 91.1334 74.7262C90.9928 74.7813 90.8431 74.8096 90.692 74.8097ZM4.92257 26.4664C3.99689 26.4674 3.10941 26.8356 2.45485 27.4901C1.80029 28.1447 1.4321 29.0322 1.43106 29.9579V55.3372C1.43211 56.2628 1.8003 57.1503 2.45486 57.8049C3.10942 58.4594 3.99689 58.8276 4.92257 58.8287H75.2987C75.5965 58.829 75.891 58.8911 76.1636 59.011C76.4361 59.1309 76.6809 59.306 76.8823 59.5253L90.2002 74.054C90.2917 74.1537 90.4111 74.2235 90.5429 74.2542C90.6747 74.2849 90.8127 74.2751 90.9388 74.226C91.0649 74.177 91.1732 74.091 91.2496 73.9793C91.326 73.8676 91.3669 73.7355 91.3669 73.6001V60.9771C91.3676 60.4075 91.5941 59.8614 91.9968 59.4586C92.3996 59.0559 92.9457 58.8293 93.5153 58.8287H96.1002C97.0259 58.8276 97.9133 58.4594 98.5679 57.8049C99.2225 57.1503 99.5906 56.2628 99.5917 55.3372V29.9579C99.5906 29.0322 99.2225 28.1447 98.5679 27.4901C97.9133 26.8356 97.0259 26.4674 96.1002 26.4664H4.92257Z" fill="#3F3D56"/>
<path d="M10.7752 37.1251C12.722 37.1251 14.3001 35.547 14.3001 33.6002C14.3001 31.6535 12.722 30.0753 10.7752 30.0753C8.82846 30.0753 7.25031 31.6535 7.25031 33.6002C7.25031 35.547 8.82846 37.1251 10.7752 37.1251Z" fill="#A92428"/>
<path d="M91.9878 53.1047H9.03497C8.7879 53.105 8.5432 53.0566 8.31486 52.9623C8.08651 52.8679 7.879 52.7295 7.70419 52.5549C7.52938 52.3803 7.39071 52.1729 7.29609 51.9447C7.20147 51.7165 7.15277 51.4718 7.15277 51.2248C7.15277 50.9777 7.20147 50.733 7.29609 50.5048C7.39071 50.2766 7.52938 50.0692 7.70419 49.8946C7.879 49.72 8.08651 49.5816 8.31486 49.4873C8.5432 49.3929 8.7879 49.3445 9.03497 49.3448H91.9878C92.486 49.3454 92.9636 49.5437 93.3157 49.8962C93.6678 50.2487 93.8655 50.7266 93.8655 51.2248C93.8655 51.723 93.6678 52.2008 93.3157 52.5533C92.9636 52.9058 92.486 53.1041 91.9878 53.1047Z" fill="#E6E6E6"/>
<path d="M64.9635 45.1149H9.03497C8.7879 45.1152 8.5432 45.0668 8.31486 44.9725C8.08651 44.8781 7.879 44.7397 7.70419 44.5651C7.52938 44.3905 7.39071 44.1831 7.29609 43.9549C7.20147 43.7267 7.15277 43.482 7.15277 43.235C7.15277 42.9879 7.20147 42.7433 7.29609 42.515C7.39071 42.2868 7.52938 42.0794 7.70419 41.9048C7.879 41.7302 8.08651 41.5918 8.31486 41.4975C8.5432 41.4031 8.7879 41.3547 9.03497 41.355H64.9635C65.4621 41.355 65.9403 41.5531 66.2928 41.9056C66.6454 42.2582 66.8435 42.7364 66.8435 43.235C66.8435 43.7336 66.6454 44.2117 66.2928 44.5643C65.9403 44.9169 65.4621 45.1149 64.9635 45.1149Z" fill="#E6E6E6"/>
<path d="M149.867 160.878C149.639 160.791 149.444 160.636 149.306 160.435C149.168 160.234 149.095 159.996 149.096 159.752V147.129C149.096 146.702 148.926 146.292 148.624 145.99C148.322 145.688 147.912 145.518 147.485 145.517H144.9C143.832 145.516 142.808 145.091 142.053 144.336C141.297 143.581 140.873 142.557 140.872 141.489V116.11C140.873 115.042 141.297 114.018 142.053 113.263C142.808 112.508 143.832 112.083 144.9 112.082H236.077C237.145 112.083 238.169 112.508 238.925 113.263C239.68 114.018 240.105 115.042 240.106 116.11V141.489C240.105 142.557 239.68 143.581 238.925 144.336C238.169 145.091 237.145 145.516 236.077 145.517H165.701C165.478 145.518 165.257 145.564 165.052 145.654C164.848 145.744 164.664 145.876 164.513 146.04L151.195 160.569C151.083 160.692 150.946 160.791 150.793 160.859C150.64 160.927 150.475 160.962 150.308 160.962C150.157 160.962 150.007 160.933 149.867 160.878Z" fill="white"/>
<path d="M149.867 160.878C149.639 160.791 149.444 160.636 149.306 160.435C149.168 160.234 149.095 159.996 149.096 159.752V147.129C149.096 146.702 148.926 146.292 148.624 145.99C148.322 145.688 147.912 145.518 147.485 145.517H144.9C143.832 145.516 142.808 145.091 142.053 144.336C141.297 143.581 140.873 142.557 140.872 141.489V116.11C140.873 115.042 141.297 114.018 142.053 113.263C142.808 112.508 143.832 112.083 144.9 112.082H236.077C237.145 112.083 238.169 112.508 238.925 113.263C239.68 114.018 240.105 115.042 240.106 116.11V141.489C240.105 142.557 239.68 143.581 238.925 144.336C238.169 145.091 237.145 145.516 236.077 145.517H165.701C165.478 145.518 165.257 145.564 165.052 145.654C164.848 145.744 164.664 145.876 164.513 146.04L151.195 160.569C151.083 160.692 150.946 160.791 150.793 160.859C150.64 160.927 150.475 160.962 150.308 160.962C150.157 160.962 150.007 160.933 149.867 160.878ZM144.9 112.618C143.974 112.619 143.087 112.988 142.432 113.642C141.778 114.297 141.409 115.184 141.408 116.11V141.489C141.409 142.415 141.778 143.302 142.432 143.957C143.087 144.611 143.974 144.98 144.9 144.981H147.485C148.054 144.981 148.6 145.208 149.003 145.611C149.406 146.013 149.632 146.559 149.633 147.129V159.752C149.633 159.887 149.674 160.02 149.75 160.131C149.827 160.243 149.935 160.329 150.061 160.378C150.187 160.427 150.325 160.437 150.457 160.406C150.589 160.376 150.708 160.306 150.8 160.206L164.118 145.677C164.319 145.458 164.564 145.283 164.836 145.163C165.109 145.043 165.403 144.981 165.701 144.981H236.077C237.003 144.98 237.891 144.611 238.545 143.957C239.2 143.302 239.568 142.415 239.569 141.489V116.11C239.568 115.184 239.2 114.297 238.545 113.642C237.891 112.988 237.003 112.619 236.077 112.618H144.9Z" fill="#3F3D56"/>
<path d="M121.447 168.737C117.708 171.132 113.376 172.437 108.937 172.508C104.498 172.578 100.126 171.411 96.313 169.137C96.9838 167.888 97.8338 166.745 98.8359 165.742C100.382 164.189 102.264 163.01 104.337 162.297C106.409 161.584 108.618 161.356 110.793 161.63C112.967 161.904 115.05 162.673 116.882 163.877C118.713 165.082 120.244 166.69 121.356 168.579C121.386 168.63 121.418 168.684 121.447 168.737Z" fill="#A92428"/>
<path d="M107.831 155.903C114.383 155.903 119.694 150.592 119.694 144.04C119.694 137.488 114.383 132.177 107.831 132.177C101.279 132.177 95.9678 137.488 95.9678 144.04C95.9678 150.592 101.279 155.903 107.831 155.903Z" fill="#2F2E41"/>
<path d="M116.658 152.407C118.997 148.129 117.425 142.764 113.146 140.425C108.867 138.086 103.502 139.658 101.163 143.937C98.8243 148.216 100.397 153.581 104.676 155.92C108.954 158.259 114.319 156.686 116.658 152.407Z" fill="#FFB8B8"/>
<path d="M99.6331 142.619C101.651 144.009 104.045 144.749 106.496 144.74C105.622 145.346 104.627 145.755 103.579 145.94C106.837 146.638 110.204 146.657 113.47 145.995C114.196 145.879 114.896 145.638 115.541 145.284C115.862 145.105 116.141 144.86 116.362 144.565C116.582 144.271 116.738 143.933 116.819 143.575C117.036 142.335 116.07 141.209 115.066 140.45C113.529 139.305 111.757 138.517 109.878 138.141C107.998 137.766 106.059 137.813 104.201 138.278C102.987 138.592 101.771 139.122 100.983 140.097C100.194 141.072 99.9607 142.574 100.712 143.578L99.6331 142.619Z" fill="#2F2E41"/>
<path d="M108.557 172.779C102.747 172.777 97.1324 170.681 92.7433 166.874C88.3541 163.068 85.4845 157.806 84.6609 152.055C83.8373 146.304 85.1149 140.448 88.2593 135.563C91.4038 130.677 96.2042 127.09 101.78 125.457C107.356 123.825 113.333 124.258 118.616 126.676C123.899 129.095 128.132 133.337 130.54 138.624C132.948 143.912 133.369 149.89 131.725 155.463C130.082 161.035 126.484 165.828 121.593 168.963C117.703 171.457 113.178 172.782 108.557 172.779ZM108.557 125.006C103.885 125.006 99.3179 126.391 95.4333 128.986C91.5486 131.581 88.5208 135.27 86.7328 139.587C84.9447 143.903 84.4768 148.652 85.3881 153.234C86.2994 157.816 88.5491 162.025 91.8526 165.329C95.156 168.632 99.365 170.882 103.947 171.793C108.529 172.704 113.279 172.237 117.595 170.448C121.911 168.66 125.6 165.633 128.195 161.748C130.79 157.863 132.175 153.296 132.175 148.624C132.168 142.363 129.677 136.359 125.249 131.932C120.822 127.504 114.819 125.013 108.557 125.006Z" fill="#3F3D56"/>
<path d="M152.215 123.009C154.162 123.009 155.74 121.431 155.74 119.484C155.74 117.537 154.162 115.959 152.215 115.959C150.268 115.959 148.69 117.537 148.69 119.484C148.69 121.431 150.268 123.009 152.215 123.009Z" fill="#A92428"/>
<path d="M233.427 138.988H150.475C150.228 138.989 149.983 138.94 149.754 138.846C149.526 138.752 149.319 138.613 149.144 138.439C148.969 138.264 148.83 138.057 148.736 137.828C148.641 137.6 148.592 137.355 148.592 137.108C148.592 136.861 148.641 136.617 148.736 136.388C148.83 136.16 148.969 135.953 149.144 135.778C149.319 135.604 149.526 135.465 149.754 135.371C149.983 135.277 150.228 135.228 150.475 135.228H233.427C233.926 135.228 234.404 135.426 234.757 135.779C235.109 136.132 235.307 136.61 235.307 137.108C235.307 137.607 235.109 138.085 234.757 138.438C234.404 138.79 233.926 138.988 233.427 138.988Z" fill="#E6E6E6"/>
<path d="M206.403 130.999H150.475C150.228 130.999 149.983 130.95 149.754 130.856C149.526 130.762 149.319 130.623 149.144 130.449C148.969 130.274 148.83 130.067 148.736 129.839C148.641 129.61 148.592 129.366 148.592 129.119C148.592 128.872 148.641 128.627 148.736 128.399C148.83 128.17 148.969 127.963 149.144 127.788C149.319 127.614 149.526 127.475 149.754 127.381C149.983 127.287 150.228 127.238 150.475 127.239H206.403C206.901 127.239 207.379 127.438 207.731 127.79C208.083 128.143 208.281 128.62 208.281 129.119C208.281 129.617 208.083 130.095 207.731 130.447C207.379 130.8 206.901 130.998 206.403 130.999Z" fill="#E6E6E6"/>
<path d="M149.753 163.281C153.385 163.281 156.33 162.954 156.33 162.551C156.33 162.148 153.385 161.821 149.753 161.821C146.121 161.821 143.177 162.148 143.177 162.551C143.177 162.954 146.121 163.281 149.753 163.281Z" fill="#F2F2F2"/>
<path d="M90.9764 77.3974C94.6085 77.3974 97.553 77.0706 97.553 76.6675C97.553 76.2644 94.6085 75.9376 90.9764 75.9376C87.3443 75.9376 84.3999 76.2644 84.3999 76.6675C84.3999 77.0706 87.3443 77.3974 90.9764 77.3974Z" fill="#F2F2F2"/>
</g>
<defs>
<clipPath id="clip0_299_26441">
<rect width="239.211" height="200" fill="white" transform="translate(0.894287)"/>
</clipPath>
</defs>
</svg>
